<?xml version="1.0" encoding="UTF-8"?>
<svg version="1.1" xmlns="http://www.w3.org/2000/svg" width="233" height="233">
<path d="M0 0 C1.6665707 -0.00734923 3.33313631 -0.01593794 4.99969482 -0.02566528 C9.50606768 -0.04780129 14.01225724 -0.05081591 18.518677 -0.04891777 C22.29074211 -0.04879769 26.06276892 -0.05737716 29.83482331 -0.06569529 C38.74000609 -0.08490128 47.64509515 -0.08782357 56.55029297 -0.08105469 C65.7134121 -0.07441745 74.87612834 -0.09727194 84.03916579 -0.13436842 C91.92739109 -0.16513596 99.81548725 -0.17641777 107.70377129 -0.1725316 C112.40572428 -0.17047121 117.10736367 -0.17583291 121.80925941 -0.20042419 C126.23443453 -0.2228055 130.65895797 -0.22071978 135.08413696 -0.20049667 C136.69972943 -0.19710653 138.31536675 -0.20208878 139.93089867 -0.21648026 C152.74152153 -0.3226439 163.34294029 1.96350388 173.4362793 10.40820312 C182.37585814 19.24483096 185.7470744 28.6324911 185.89042759 41.04118383 C185.90061602 43.34370728 185.89616879 45.64594896 185.89135742 47.94848633 C185.89870665 49.61505702 185.90729536 51.28162264 185.91702271 52.94818115 C185.93915871 57.45455401 185.94217333 61.96074357 185.94027519 66.46716332 C185.94015511 70.23922844 185.94873458 74.01125524 185.95705271 77.78330964 C185.9762587 86.68849242 185.979181 95.59358148 185.97241211 104.4987793 C185.96577487 113.66189843 185.98862936 122.82461467 186.02572584 131.98765212 C186.05649338 139.87587742 186.06777519 147.76397358 186.06388903 155.65225762 C186.06182864 160.35421061 186.06719033 165.05585 186.09178162 169.75774574 C186.11416292 174.18292086 186.1120772 178.6074443 186.0918541 183.03262329 C186.08846396 184.64821575 186.0934462 186.26385307 186.10783768 187.87938499 C186.21400133 200.69000786 183.92785354 211.29142662 175.4831543 221.38476562 C166.64652646 230.32434447 157.25886633 233.69556072 144.85017359 233.83891392 C142.54765014 233.84910235 140.24540846 233.84465512 137.94287109 233.83984375 C136.2763004 233.84719298 134.60973478 233.85578169 132.94317627 233.86550903 C128.43680342 233.88764504 123.93061385 233.89065966 119.4241941 233.88876152 C115.65212899 233.88864144 111.88010218 233.89722091 108.10804778 233.90553904 C99.202865 233.92474503 90.29777594 233.92766732 81.39257812 233.92089844 C72.22945899 233.9142612 63.06674275 233.93711569 53.9037053 233.97421217 C46.01548001 234.00497971 38.12738384 234.01626152 30.2390998 234.01237535 C25.53714682 234.01031496 20.83550742 234.01567666 16.13361168 234.04026794 C11.70843656 234.06264925 7.28391313 234.06056353 2.85873413 234.04034042 C1.24314167 234.03695028 -0.37249565 234.04193253 -1.98802757 234.05632401 C-14.79865043 234.16248765 -25.4000692 231.87633987 -35.4934082 223.43164062 C-44.43298704 214.59501279 -47.8042033 205.20735265 -47.9475565 192.79865992 C-47.95774493 190.49613647 -47.9532977 188.19389479 -47.94848633 185.89135742 C-47.95583556 184.22478673 -47.96442426 182.55822111 -47.97415161 180.8916626 C-47.99628762 176.38528974 -47.99930224 171.87910018 -47.9974041 167.37268043 C-47.99728402 163.60061531 -48.00586349 159.82858851 -48.01418161 156.05653411 C-48.03338761 147.15135133 -48.0363099 138.24626227 -48.02954102 129.34106445 C-48.02290378 120.17794532 -48.04575827 111.01522908 -48.08285475 101.85219163 C-48.11362229 93.96396633 -48.1249041 86.07587017 -48.12101793 78.18758613 C-48.11895754 73.48563314 -48.12431923 68.78399375 -48.14891052 64.08209801 C-48.17129182 59.65692289 -48.16920611 55.23239945 -48.148983 50.80722046 C-48.14559286 49.191628 -48.15057511 47.57599068 -48.16496658 45.96045876 C-48.27113023 33.14983589 -45.98498244 22.54841713 -37.5402832 12.45507812 C-26.53251671 1.31906581 -14.92967723 -0.03119696 0 0 Z " fill="#EEF6FA" transform="translate(47.528564453125,-0.419921875)"/>
<path d="M0 0 C10.03796238 6.80270544 16.86912416 16.73659792 19.1875 28.75 C20.40779466 42.43473299 15.61714093 53.74978566 9.5625 65.75 C8.2981524 68.29690436 7.04164112 70.84764694 5.78515625 73.3984375 C5.4753331 74.02471039 5.16550995 74.65098328 4.84629822 75.29623413 C1.67786526 81.72537583 -1.23745354 88.25995376 -4.05908203 94.84765625 C-4.38376465 95.59144531 -4.70844727 96.33523437 -5.04296875 97.1015625 C-5.45131958 98.05796631 -5.45131958 98.05796631 -5.86791992 99.03369141 C-6.95774599 101.01391298 -8.05030972 102.33284431 -9.8125 103.75 C-12.5 103.4375 -12.5 103.4375 -14.8125 102.75 C-14.37658185 93.60719039 -13.7702539 84.72145478 -11.8125 75.75 C-13.7925 76.245 -13.7925 76.245 -15.8125 76.75 C-15.86148438 77.47703125 -15.91046875 78.2040625 -15.9609375 78.953125 C-16.36780099 84.42473744 -16.87498599 89.87655778 -17.625 95.3125 C-17.75519531 96.28316406 -17.88539062 97.25382812 -18.01953125 98.25390625 C-18.99758553 101.33260912 -19.98604818 102.24187507 -22.8125 103.75 C-29.13977273 103.42272727 -29.13977273 103.42272727 -31.8125 100.75 C-32.31494141 98.31982422 -32.31494141 98.31982422 -32.6640625 95.3046875 C-32.79296875 94.22832031 -32.921875 93.15195313 -33.0546875 92.04296875 C-33.18101563 90.91503906 -33.30734375 89.78710938 -33.4375 88.625 C-33.63859375 86.92150391 -33.63859375 86.92150391 -33.84375 85.18359375 C-34.17438425 82.37320259 -34.49695086 79.56211828 -34.8125 76.75 C-35.8025 76.75 -36.7925 76.75 -37.8125 76.75 C-37.668125 77.78898437 -37.52375 78.82796875 -37.375 79.8984375 C-36.34506765 87.5504126 -35.47754751 95.00887573 -35.8125 102.75 C-38.2875 103.245 -38.2875 103.245 -40.8125 103.75 C-43.61613648 100.4441028 -45.66702749 97.33289694 -47.44140625 93.3828125 C-47.91400879 92.34294189 -48.38661133 91.30307129 -48.87353516 90.23168945 C-49.36901855 89.12398193 -49.86450195 88.01627441 -50.375 86.875 C-51.43461151 84.53704078 -52.49584473 82.19981595 -53.55859375 79.86328125 C-54.09597168 78.68072754 -54.63334961 77.49817383 -55.18701172 76.27978516 C-58.13423102 69.87983072 -61.22248189 63.54649589 -64.33422852 57.22509766 C-69.60322776 46.3740697 -72.05885828 35.20517686 -68.90234375 23.32421875 C-63.91205716 10.69606586 -55.57801055 1.72885955 -43.40234375 -4.20703125 C-28.438999 -10.23299362 -13.62142487 -8.08772102 0 0 Z " fill="#4DB1F1" transform="translate(141.8125,47.25)"/>
<path d="M0 0 C4.74105096 3.4317491 9.23619884 7.14836122 13.6875 10.9453125 C16.88913773 9.53574191 18.96195827 7.83359881 21.4375 5.3828125 C38.88817959 -10.32565522 58.42348262 -13.90229344 81.19238281 -13.24755859 C83.6875 -13.0546875 83.6875 -13.0546875 87.6875 -12.0546875 C86.6975 -8.0946875 85.7075 -4.1346875 84.6875 -0.0546875 C81.52159658 -0.47680796 78.39176535 -0.90588305 75.265625 -1.56640625 C55.94228009 -5.59686724 39.10257226 -1.39081361 22.6875 8.9453125 C19.83668019 11.1202914 17.19433824 13.38241078 14.6875 15.9453125 C14.27242188 15.605 13.85734375 15.2646875 13.4296875 14.9140625 C-2.12971812 2.67486477 -19.25878905 -4.35970123 -39.3125 -3.0546875 C-43.05517513 -2.40180705 -46.72261075 -1.6068404 -50.4140625 -0.7109375 C-53.3125 -0.0546875 -53.3125 -0.0546875 -56.3125 -0.0546875 C-57.3025 -4.0146875 -58.2925 -7.9746875 -59.3125 -12.0546875 C-39.12428834 -18.51491523 -17.03134431 -11.30354101 0 0 Z " fill="#51B3F1" transform="translate(102.3125,178.0546875)"/>
<path d="M0 0 C5.34740414 1.95385921 8.45618143 4.91236287 11 10 C11.36969532 15.54542986 11.3292931 19.31818158 8 24 C4.40874603 27.06550733 1.1598284 28.79288778 -3.5 29.625 C-8.1565474 28.79347368 -11.41430637 27.06883689 -15 24 C-18.01307266 19.66870806 -18.55924465 16.21961673 -18 11 C-14.80018282 2.41101705 -8.89370628 -0.91260046 0 0 Z " fill="#ECF5FA" transform="translate(120,68)"/>
<path d="M0 0 C0 3.3 0 6.6 0 10 C-1.11375 10.01417969 -2.2275 10.02835938 -3.375 10.04296875 C-26.83720354 10.64635655 -43.77285388 19.43261214 -61 35 C-61 30.83142986 -59.18860217 29.74667675 -56.37792969 26.85888672 C-55.71696289 26.2042041 -55.05599609 25.54952148 -54.375 24.875 C-53.69856445 24.20355957 -53.02212891 23.53211914 -52.32519531 22.84033203 C-38.18606814 9.17821125 -19.96813708 -0.76800527 0 0 Z " fill="#53B4F1" transform="translate(183,149)"/>
<path d="M0 0 C6.02322932 -0.18822592 11.22645409 0.15581837 17 2 C18.26650391 2.4021875 18.26650391 2.4021875 19.55859375 2.8125 C37.15482356 8.80270589 49.29635572 19.93794569 62 33 C61.505 33.99 61.505 33.99 61 35 C60.47792969 34.50371094 59.95585938 34.00742188 59.41796875 33.49609375 C44.64515289 19.86163848 27.70226507 11.5448356 7.625 10.4375 C6.88894531 10.39431641 6.15289062 10.35113281 5.39453125 10.30664062 C3.59651932 10.20156201 1.79828042 10.10037907 0 10 C0 6.7 0 3.4 0 0 Z " fill="#53B4F1" transform="translate(50,149)"/>
<path d="M0 0 C7.59 0 15.18 0 23 0 C23 4.93248126 21.10459977 7.05798221 18.1875 10.75 C17.73568359 11.35199219 17.28386719 11.95398438 16.81835938 12.57421875 C15.62322658 14.11306126 14.31735336 15.56439602 13 17 C12.01 17 11.02 17 10 17 C8.12488264 14.76462387 6.46383342 12.57851771 4.8125 10.1875 C4.34908203 9.54490234 3.88566406 8.90230469 3.40820312 8.24023438 C0 3.39646999 0 3.39646999 0 0 Z " fill="#52B3F1" transform="translate(105,153)"/>
<path d="M0 0 C0.66 0.33 1.32 0.66 2 1 C2 1.99 2 2.98 2 4 C-0.2734375 5.5078125 -0.2734375 5.5078125 -3.375 7.125 C-9.74059057 10.65555914 -14.80770356 14.93406475 -20 20 C-20.33 19.01 -20.66 18.02 -21 17 C-18.81565024 15.1004337 -16.62767717 13.20532789 -14.4375 11.3125 C-13.82841797 10.78205078 -13.21933594 10.25160156 -12.59179688 9.70507812 C-8.54566884 6.2155603 -4.39057943 3.04571726 0 0 Z " fill="#DCEEF9" transform="translate(138,170)"/>
<path d="M0 0 C4.06498881 1.37184347 6.67396561 3.22068459 9.8125 6.125 C10.99779297 7.21167969 10.99779297 7.21167969 12.20703125 8.3203125 C12.79871094 8.87460938 13.39039062 9.42890625 14 10 C13.67 10.66 13.34 11.32 13 12 C12.31292969 11.44570312 11.62585938 10.89140625 10.91796875 10.3203125 C10.01691406 9.59585938 9.11585937 8.87140625 8.1875 8.125 C7.29417969 7.40570313 6.40085937 6.68640625 5.48046875 5.9453125 C2.96429047 3.92059294 2.96429047 3.92059294 0 2 C0 1.34 0 0.68 0 0 Z " fill="#C5E4F8" transform="translate(102,177)"/>
<path d="M0 0 C-1.13819851 3.41459553 -2.24005518 4.3324158 -4.9375 6.625 C-5.64777344 7.23601562 -6.35804687 7.84703125 -7.08984375 8.4765625 C-9 10 -9 10 -11 11 C-10.45418801 7.20450741 -8.94590705 5.69020705 -6.0625 3.25 C-5.35222656 2.63640625 -4.64195313 2.0228125 -3.91015625 1.390625 C-2 0 -2 0 0 0 Z " fill="#BFE2F8" transform="translate(128,179)"/>
</svg>
