<svg width="8" height="13" viewBox="0 0 8 13" fill="none" xmlns="http://www.w3.org/2000/svg">
<path d="M6.44504 0.495495C6.72368 0.189002 7.19801 0.166415 7.5045 0.445045C7.811 0.723675 7.83359 1.19801 7.55496 1.5045L6.44504 0.495495ZM2 6.5L1.44504 7.0045L0.986404 6.5L1.44504 5.9955L2 6.5ZM7.55496 11.4955C7.83359 11.802 7.811 12.2763 7.5045 12.555C7.19801 12.8336 6.72368 12.811 6.44504 12.5045L7.55496 11.4955ZM7 1L7.55496 1.5045L2.55496 7.0045L2 6.5L1.44504 5.9955L6.44504 0.495495L7 1ZM2 6.5L2.55496 5.9955L2.98284 6.46616L2.42788 6.97067L1.87292 7.47517L1.44504 7.0045L2 6.5ZM7 12L6.44504 12.5045L1.44504 7.0045L2 6.5L2.55496 5.9955L7.55496 11.4955L7 12Z" fill="#121212"/>
</svg>
