<svg width="16" height="14" viewBox="0 0 16 14" fill="none" xmlns="http://www.w3.org/2000/svg">
<path d="M1.6 1.55556H4L5.6 0H10.4L12 1.55556H14.4C14.8243 1.55556 15.2313 1.71944 15.5314 2.01117C15.8314 2.30289 16 2.69855 16 3.11111V12.4444C16 12.857 15.8314 13.2527 15.5314 13.5444C15.2313 13.8361 14.8243 14 14.4 14H1.6C1.17565 14 0.768687 13.8361 0.468629 13.5444C0.168571 13.2527 0 12.857 0 12.4444V3.11111C0 2.69855 0.168571 2.30289 0.468629 2.01117C0.768687 1.71944 1.17565 1.55556 1.6 1.55556ZM8 3.88889C6.93913 3.88889 5.92172 4.29861 5.17157 5.02792C4.42143 5.75723 4 6.74638 4 7.77778C4 8.80918 4.42143 9.79833 5.17157 10.5276C5.92172 11.2569 6.93913 11.6667 8 11.6667C9.06087 11.6667 10.0783 11.2569 10.8284 10.5276C11.5786 9.79833 12 8.80918 12 7.77778C12 6.74638 11.5786 5.75723 10.8284 5.02792C10.0783 4.29861 9.06087 3.88889 8 3.88889ZM8 5.44444C8.63652 5.44444 9.24697 5.69028 9.69706 6.12786C10.1471 6.56545 10.4 7.15894 10.4 7.77778C10.4 8.39662 10.1471 8.99011 9.69706 9.42769C9.24697 9.86528 8.63652 10.1111 8 10.1111C7.36348 10.1111 6.75303 9.86528 6.30294 9.42769C5.85286 8.99011 5.6 8.39662 5.6 7.77778C5.6 7.15894 5.85286 6.56545 6.30294 6.12786C6.75303 5.69028 7.36348 5.44444 8 5.44444Z" fill="#8F9098"/>
</svg>
