<svg width="13" height="14" viewBox="0 0 13 14" fill="none" xmlns="http://www.w3.org/2000/svg">
<path d="M6.5 12.2C3.6335 12.2 1.3 9.8665 1.3 7C1.3 4.1335 3.6335 1.8 6.5 1.8C9.3665 1.8 11.7 4.1335 11.7 7C11.7 9.8665 9.3665 12.2 6.5 12.2ZM6.5 0.5C2.9055 0.5 0 3.4055 0 7C0 10.5945 2.9055 13.5 6.5 13.5C10.0945 13.5 13 10.5945 13 7C13 3.4055 10.0945 0.5 6.5 0.5ZM8.1835 4.4L6.5 6.0835L4.8165 4.4L3.9 5.3165L5.5835 7L3.9 8.6835L4.8165 9.6L6.5 7.9165L8.1835 9.6L9.1 8.6835L7.4165 7L9.1 5.3165L8.1835 4.4Z" fill="#8F9098"/>
</svg>
