<svg width="13" height="8" viewBox="0 0 13 8" fill="none" xmlns="http://www.w3.org/2000/svg">
<path fill-rule="evenodd" clip-rule="evenodd" d="M0.275435 7.33805C0.447345 7.50344 0.677889 7.59382 0.916402 7.58932C1.15492 7.58482 1.38189 7.48581 1.54743 7.31405L5.99943 2.58845L10.4514 7.31405C10.5324 7.40326 10.6304 7.47532 10.7397 7.52596C10.8489 7.57661 10.9673 7.60479 11.0877 7.60886C11.208 7.61293 11.328 7.59279 11.4405 7.54964C11.5529 7.50649 11.6556 7.44121 11.7423 7.35766C11.8291 7.27412 11.8982 7.174 11.9456 7.06326C11.9929 6.95251 12.0176 6.83338 12.018 6.71294C12.0185 6.59249 11.9948 6.47317 11.9483 6.36205C11.9018 6.25094 11.8335 6.15028 11.7474 6.06605L6.64743 0.666047C6.56348 0.578943 6.46283 0.50966 6.35149 0.462337C6.24015 0.415015 6.12041 0.390625 5.99943 0.390625C5.87846 0.390625 5.75872 0.415015 5.64738 0.462337C5.53604 0.50966 5.43539 0.578943 5.35143 0.666047L0.251435 6.06605C0.0860387 6.23796 -0.0043399 6.4685 0.000160357 6.70701C0.00466062 6.94553 0.103672 7.1725 0.275435 7.33805Z" fill="#ADAEBC"/>
</svg>
