<svg width="13" height="8" viewBox="0 0 13 8" fill="none" xmlns="http://www.w3.org/2000/svg">
<path fill-rule="evenodd" clip-rule="evenodd" d="M0.275435 0.661953C0.447345 0.496557 0.677889 0.406178 0.916402 0.410679C1.15492 0.415179 1.38189 0.51419 1.54743 0.685953L5.99943 5.41155L10.4514 0.685953C10.5324 0.596739 10.6304 0.524677 10.7397 0.474036C10.8489 0.423395 10.9673 0.395206 11.0877 0.391138C11.208 0.387071 11.328 0.407208 11.4405 0.450357C11.5529 0.493506 11.6556 0.558789 11.7423 0.642337C11.8291 0.725885 11.8982 0.825998 11.9456 0.936744C11.9929 1.04749 12.0176 1.16662 12.018 1.28706C12.0185 1.40751 11.9948 1.52683 11.9483 1.63795C11.9018 1.74906 11.8335 1.84972 11.7474 1.93395L6.64743 7.33395C6.56348 7.42106 6.46283 7.49034 6.35149 7.53766C6.24015 7.58499 6.12041 7.60938 5.99943 7.60938C5.87846 7.60938 5.75872 7.58499 5.64738 7.53766C5.53604 7.49034 5.43539 7.42106 5.35143 7.33395L0.251435 1.93395C0.0860387 1.76204 -0.0043399 1.5315 0.000160357 1.29299C0.00466062 1.05447 0.103672 0.827502 0.275435 0.661953Z" fill="#ADAEBC"/>
</svg>
