<svg width="20" height="21" viewBox="0 0 20 21" fill="none" xmlns="http://www.w3.org/2000/svg">
<path d="M8.50157 15.441C8.32975 15.441 8.23886 15.6311 8.35341 15.7509L9.80259 17.719C9.88161 17.8017 10.0199 17.8017 10.0989 17.719L11.5481 15.7509C11.6626 15.6311 11.5718 15.441 11.3999 15.441H8.50157Z" fill="#4CB1F1"/>
<path d="M11.4254 10.5841C11.0271 10.6524 10.3677 10.6769 9.94828 10.6769C9.55297 10.6769 8.88666 10.645 8.50996 10.5841L9.12635 14.6107C9.17054 14.9139 9.69659 15.14 10.0237 15.14C10.3556 15.14 10.8027 14.9191 10.8412 14.6107L11.4254 10.5841Z" fill="#4CB1F1"/>
<path d="M7.5753 14.7628C7.67688 14.9787 7.86956 15.1156 8.12179 15.1156C8.60947 15.1156 8.66675 14.7924 8.60947 14.4328L7.97019 10.42C6.34865 9.99648 5.17238 8.95469 4.28833 7.65793L7.5753 14.7628Z" fill="#4CB1F1"/>
<path fill-rule="evenodd" clip-rule="evenodd" d="M10.0207 0C6.67992 0 3.97159 2.59719 3.97159 5.80098C3.97159 9.00476 6.67992 11.602 10.0207 11.602C13.3615 11.6019 16.0698 9.00475 16.0698 5.80098C16.0698 2.5972 13.3615 1.79041e-05 10.0207 0ZM10.0019 3.83012C11.1051 3.83014 11.9993 4.7042 11.9993 5.78238C11.9993 6.86056 11.1051 7.73461 10.0019 7.73464C8.89869 7.73464 8.00435 6.86058 8.00435 5.78238C8.00436 4.70418 8.89869 3.83012 10.0019 3.83012Z" fill="#4CB1F1"/>
<path d="M19.5765 18.9263L20 17.2229C15.5065 16.0774 11.4484 18.9345 9.99218 20.5063V21C9.99218 21 13.8259 16.7785 19.5765 18.9263Z" fill="#4CB1F1"/>
<path d="M19.0073 16.2107L19.0073 14.8035C14.3983 14.9519 11.0574 18.613 9.99218 20.4075C9.99218 20.4075 13.5361 15.7663 19.0073 16.2107Z" fill="#4CB1F1"/>
<path d="M0.423492 18.929L0 17.2256C4.49349 16.0801 8.53596 18.9345 9.99218 20.5063V21C9.99218 21 6.17409 16.7812 0.423492 18.929Z" fill="#4CB1F1"/>
<path d="M0.992664 16.2134L0.992647 14.8062C5.60167 14.9547 8.927 18.613 9.99218 20.4075C9.99218 20.4075 6.46386 15.769 0.992664 16.2134Z" fill="#4CB1F1"/>
<path d="M12.4344 14.7624C12.3328 14.9783 12.1402 15.1152 11.8879 15.1152C11.4002 15.1152 11.343 14.792 11.4002 14.4324L12.0395 10.4196C13.6611 9.99609 14.8373 8.95431 15.7214 7.65754L12.4344 14.7624Z" fill="#4CB1F1"/>
</svg>
