<svg width="19" height="18" viewBox="0 0 19 18" fill="currentColor" xmlns="http://www.w3.org/2000/svg">
<path d="M13.325 1C11.846 1 10.4265 2.46185 9.5 3.5C8.5735 2.46185 7.154 1 5.675 1C3.057 1 1 2.97003 1 5.49591C1 8.57766 3.89 11.1035 8.2675 14.921L9.5 16L10.7325 14.921C15.11 11.1035 18 8.57766 18 5.49591C18 2.97003 15.943 1 13.325 1Z" fill="currentColor"/>
<path d="M13.3252 0.5C16.2001 0.500099 18.5 2.67532 18.5 5.49609C18.4999 7.20776 17.6927 8.72256 16.3887 10.2568C15.0895 11.7854 13.2399 13.3982 11.0615 15.2979L11.0605 15.2969L9.8291 16.376L9.5 16.6641L9.1709 16.376L7.93848 15.2969C5.76031 13.3974 3.91045 11.7853 2.61133 10.2568C1.3073 8.72256 0.500057 7.20776 0.5 5.49609C0.5 2.67532 2.79995 0.500099 5.6748 0.5C6.57437 0.5 7.40602 0.940935 8.0957 1.46191C8.61985 1.85787 9.09718 2.327 9.5 2.75781C9.90282 2.327 10.3802 1.85787 10.9043 1.46191C11.594 0.940935 12.4256 0.5 13.3252 0.5Z" stroke="#B1B8C1" stroke-opacity="0.33"/>
</svg>
