<svg width="8" height="14" viewBox="0 0 8 14" fill="none" xmlns="http://www.w3.org/2000/svg">
<path d="M1.55496 0.995495C1.27632 0.689002 0.801989 0.666415 0.495495 0.945045C0.189002 1.22368 0.166415 1.69801 0.445045 2.0045L1.55496 0.995495ZM6 7L6.55496 7.5045L7.0136 7L6.55496 6.4955L6 7ZM0.445045 11.9955C0.166415 12.302 0.189002 12.7763 0.495495 13.055C0.801989 13.3336 1.27632 13.311 1.55496 13.0045L0.445045 11.9955ZM1 1.5L0.445045 2.0045L5.44504 7.5045L6 7L6.55496 6.4955L1.55496 0.995495L1 1.5ZM6 7L5.44504 6.4955L5.01716 6.96616L5.57212 7.47067L6.12707 7.97517L6.55496 7.5045L6 7ZM1 12.5L1.55496 13.0045L6.55496 7.5045L6 7L5.44504 6.4955L0.445045 11.9955L1 12.5Z" fill="#121212"/>
</svg>
