<svg width="23" height="22" viewBox="0 0 23 22" fill="none" xmlns="http://www.w3.org/2000/svg">
<g clip-path="url(#clip0_718_278)">
<path d="M11.7821 5.17647H2.75641C2.15797 5.17647 1.58405 5.44916 1.16089 5.93455C0.737728 6.41994 0.5 7.07826 0.5 7.76471V12.9412C0.5 13.6276 0.737728 14.2859 1.16089 14.7713C1.58405 15.2567 2.15797 15.5294 2.75641 15.5294H3.88462V20.7059C3.88462 21.0491 4.00348 21.3783 4.21506 21.621C4.42664 21.8637 4.7136 22 5.01282 22H7.26923C7.56845 22 7.85541 21.8637 8.06699 21.621C8.27857 21.3783 8.39744 21.0491 8.39744 20.7059V15.5294H11.7821L17.4231 20.7059V0L11.7821 5.17647ZM22.5 10.3529C22.5 12.5659 21.4169 14.5718 19.6795 15.5294V5.17647C21.4056 6.14706 22.5 8.15294 22.5 10.3529Z" fill="#4CB1F1"/>
</g>
<defs>
<clipPath id="clip0_718_278">
<rect width="22" height="22" fill="white" transform="translate(0.5)"/>
</clipPath>
</defs>
</svg>
