<svg version="1.1" id="Layer_1" xmlns="http://www.w3.org/2000/svg" xmlns:xlink="http://www.w3.org/1999/xlink" x="0px" y="0px"
	 width="100%" viewBox="0 0 190 187" enable-background="new 0 0 190 187" xml:space="preserve">
<path fill="#FFFFFF" opacity="1.000000" stroke="none" 
	d="
M135.000000,188.000000 
	C90.029526,188.000000 45.559048,188.000000 1.044286,188.000000 
	C1.044286,125.737572 1.044286,63.475105 1.044286,1.106319 
	C64.220276,1.106319 127.440788,1.106319 190.830658,1.106319 
	C190.830658,63.332951 190.830658,125.666443 190.830658,188.000000 
	C172.475388,188.000000 153.987701,188.000000 135.000000,188.000000 
M80.543037,95.043098 
	C68.411308,107.154190 56.266594,119.252350 44.169090,131.397537 
	C43.030346,132.540771 41.381763,133.955139 41.340729,135.285904 
	C41.081516,143.692307 41.209270,152.110626 41.209270,160.879517 
	C48.567360,160.879517 55.212624,160.659042 61.833908,160.962234 
	C65.805298,161.144089 68.611313,159.958145 71.440773,157.099075 
	C94.737335,133.558701 118.200249,110.182961 141.604401,86.749001 
	C142.753555,85.598389 143.825256,84.370438 144.261490,83.901054 
	C135.425873,75.011551 126.823097,66.356300 117.933525,57.412514 
	C105.902184,69.522392 93.472801,82.032921 80.543037,95.043098 
M158.280640,45.220814 
	C155.457031,42.399818 152.723068,39.480972 149.783081,36.786980 
	C147.155869,34.379570 143.682190,32.775345 140.794693,35.414494 
	C135.966919,39.827030 131.780914,44.941750 128.066193,48.959087 
	C136.403793,57.351532 144.903503,65.907143 154.119522,75.183784 
	C157.601578,71.425957 161.488510,67.339592 165.249542,63.140442 
	C168.688828,59.300507 168.632904,56.057384 165.084976,52.115555 
	C163.084686,49.893200 160.887726,47.847874 158.280640,45.220814 
z"/>
<path fill="#4EB2F1" opacity="1.000000" stroke="none" 
	d="
M80.793228,94.793274 
	C93.472801,82.032921 105.902184,69.522392 117.933525,57.412514 
	C126.823097,66.356300 135.425873,75.011551 144.261490,83.901054 
	C143.825256,84.370438 142.753555,85.598389 141.604401,86.749001 
	C118.200249,110.182961 94.737335,133.558701 71.440773,157.099075 
	C68.611313,159.958145 65.805298,161.144089 61.833908,160.962234 
	C55.212624,160.659042 48.567360,160.879517 41.209270,160.879517 
	C41.209270,152.110626 41.081516,143.692307 41.340729,135.285904 
	C41.381763,133.955139 43.030346,132.540771 44.169090,131.397537 
	C56.266594,119.252350 68.411308,107.154190 80.793228,94.793274 
z"/>
<path fill="#4EB2F1" opacity="1.000000" stroke="none" 
	d="
M158.529999,45.471809 
	C160.887726,47.847874 163.084686,49.893200 165.084976,52.115555 
	C168.632904,56.057384 168.688828,59.300507 165.249542,63.140442 
	C161.488510,67.339592 157.601578,71.425957 154.119522,75.183784 
	C144.903503,65.907143 136.403793,57.351532 128.066193,48.959087 
	C131.780914,44.941750 135.966919,39.827030 140.794693,35.414494 
	C143.682190,32.775345 147.155869,34.379570 149.783081,36.786980 
	C152.723068,39.480972 155.457031,42.399818 158.529999,45.471809 
z"/>
</svg>