<svg width="24" height="25" viewBox="0 0 24 25" fill="none" xmlns="http://www.w3.org/2000/svg">
<path d="M12 0.5C13.5913 0.5 15.1174 1.13214 16.2426 2.25736C17.3679 3.38258 18 4.9087 18 6.5C18 8.0913 17.3679 9.61742 16.2426 10.7426C15.1174 11.8679 13.5913 12.5 12 12.5C10.4087 12.5 8.88258 11.8679 7.75736 10.7426C6.63214 9.61742 6 8.0913 6 6.5C6 4.9087 6.63214 3.38258 7.75736 2.25736C8.88258 1.13214 10.4087 0.5 12 0.5ZM12 15.5C18.63 15.5 24 18.185 24 21.5V24.5H0V21.5C0 18.185 5.37 15.5 12 15.5Z" fill="white"/>
</svg>
