<svg width="117" height="122" viewBox="0 0 117 122" fill="currentColor" xmlns="http://www.w3.org/2000/svg">
<path d="M67.2658 89.7049C68.2709 89.7049 68.8027 90.8095 68.1325 91.5055L59.6548 102.939C59.1926 103.419 58.3836 103.419 57.9214 102.939L49.4436 91.5055C48.7735 90.8095 49.3052 89.7049 50.3104 89.7049H67.2658Z" fill="currentColor"/>
<path d="M50.1615 61.4883C52.4913 61.8856 56.3492 62.0274 58.8026 62.0274C61.1151 62.0274 65.013 61.8422 67.2167 61.4883L63.6109 84.8812C63.3524 86.6428 60.275 87.9562 58.3613 87.9562C56.4196 87.9562 53.8043 86.6729 53.579 84.8812L50.1615 61.4883Z" fill="currentColor"/>
<path d="M72.6845 85.7646C72.0902 87.0193 70.9631 87.8143 69.4875 87.8143C66.6346 87.8143 66.2995 85.9368 66.6346 83.8477L70.3744 60.5353C79.8604 58.0748 86.7416 52.0225 91.9132 44.4889L72.6845 85.7646Z" fill="currentColor"/>
<path fill-rule="evenodd" clip-rule="evenodd" d="M58.3787 0C77.9225 0 93.7662 15.0884 93.7662 33.7009C93.7662 52.3134 77.9225 67.4018 58.3787 67.4018C38.835 67.4017 22.9917 52.3133 22.9917 33.7009C22.9917 15.0885 38.835 0.000104014 58.3787 0ZM58.489 22.2512C52.0354 22.2513 46.804 27.3292 46.804 33.5929C46.804 39.8566 52.0354 44.9344 58.489 44.9346C64.9427 44.9346 70.1745 39.8567 70.1745 33.5929C70.1745 27.3291 64.9427 22.2512 58.489 22.2512Z" fill="currentColor"/>
<path d="M2.47744 109.953L0 100.057C26.2869 93.4019 50.0268 110 58.5457 119.132V122C58.5457 122 36.1184 97.475 2.47744 109.953Z" fill="currentColor"/>
<path d="M5.80712 94.1764L5.80702 86.0013C32.7698 86.8637 52.3145 108.133 58.5458 118.558C58.5458 118.558 37.8136 91.5947 5.80712 94.1764Z" fill="currentColor"/>
<path d="M114.523 109.968L117 100.072C90.7131 93.4176 67.0646 110 58.5457 119.132V122C58.5457 122 80.8816 97.4907 114.523 109.968Z" fill="currentColor"/>
<path d="M111.193 94.1923L111.193 86.0172C84.2302 86.8796 64.7771 108.133 58.5458 118.558C58.5458 118.558 79.1864 91.6106 111.193 94.1923Z" fill="currentColor"/>
<path d="M44.2587 85.7623C44.8529 87.0171 45.9801 87.812 47.4556 87.8121C50.3085 87.8121 50.6436 85.9346 50.3086 83.8455L46.5688 60.533C37.0828 58.0725 30.2016 52.0203 25.0299 44.4867L44.2587 85.7623Z" fill="currentColor"/>
</svg>
