<svg width="131" height="29" viewBox="0 0 131 29" fill="currentColor" xmlns="http://www.w3.org/2000/svg">
<mask id="path-1-outside-1_760_1642" maskUnits="userSpaceOnUse" x="0" y="0" width="131" height="29" fill="black">
<rect fill="white" width="131" height="29"/>
<path d="M11.4701 17.6277V15.0079C11.4701 14.099 11.3061 13.4842 10.978 13.1634C10.65 12.8248 10.0303 12.6554 9.11911 12.6554H7.01416C6.64966 12.6554 6.46741 12.3436 6.46741 11.7198C6.46741 11.096 6.64966 10.7842 7.01416 10.7842H9.11911C10.7411 10.7842 11.8984 11.105 12.5909 11.7465C13.3017 12.3881 13.6571 13.4752 13.6571 15.0079V17.3604C13.6571 18.7149 13.1012 19.7574 11.9895 20.4881C10.896 21.2188 9.31047 21.5842 7.23285 21.5842C5.19168 21.5842 3.64258 21.2277 2.58555 20.5149C1.52852 19.802 1 18.7505 1 17.3604V5.22376C1 3.85149 1.52852 2.80891 2.58555 2.09604C3.66081 1.36535 5.2008 1 7.20552 1C9.19201 1 10.6955 1.35644 11.7161 2.06931C12.7367 2.78218 13.247 3.83366 13.247 5.22376V6.69406C13.247 7.10396 12.8825 7.30891 12.1535 7.30891C11.4245 7.30891 11.06 7.10396 11.06 6.69406V4.95644C11.06 3.56634 9.7752 2.87129 7.20552 2.87129C5.91156 2.87129 4.91831 3.0495 4.22577 3.40594C3.53324 3.76238 3.18697 4.27921 3.18697 4.95644V17.6277C3.18697 19.0178 4.53559 19.7129 7.23285 19.7129C8.61793 19.7129 9.66585 19.5347 10.3766 19.1782C11.1056 18.8218 11.4701 18.305 11.4701 17.6277Z"/>
<path d="M30.4032 8.96634V17.3604C30.4032 18.7149 29.8929 19.7574 28.8723 20.4881C27.8699 21.2188 26.4119 21.5842 24.4983 21.5842C22.5848 21.5842 21.1177 21.2188 20.0971 20.4881C19.0765 19.7574 18.5662 18.7149 18.5662 17.3604V8.96634C18.5662 7.59406 19.0674 6.55149 20.0697 5.83861C21.0903 5.10792 22.5574 4.74258 24.471 4.74258C26.3846 4.74258 27.8517 5.10792 28.8723 5.83861C29.8929 6.55149 30.4032 7.59406 30.4032 8.96634ZM28.2162 17.6277V8.69901C28.2162 8.02178 27.8973 7.50495 27.2594 7.14851C26.6215 6.79208 25.6921 6.61386 24.471 6.61386C21.9924 6.61386 20.7532 7.30891 20.7532 8.69901V17.6277C20.7532 18.305 21.0721 18.8218 21.71 19.1782C22.3478 19.5347 23.2773 19.7129 24.4983 19.7129C26.9769 19.7129 28.2162 19.0178 28.2162 17.6277Z"/>
<path d="M47.9758 8.96634V20.702C47.9758 21.1119 47.6113 21.3168 46.8823 21.3168C46.1533 21.3168 45.7888 21.1119 45.7888 20.702V8.69901C45.7888 8.02178 45.4699 7.50495 44.832 7.14851C44.1941 6.79208 43.2647 6.61386 42.0436 6.61386C39.5651 6.61386 38.3258 7.30891 38.3258 8.69901V20.702C38.3258 21.1119 37.9613 21.3168 37.2323 21.3168C36.5033 21.3168 36.1388 21.1119 36.1388 20.702V8.96634C36.1388 7.59406 36.64 6.55149 37.6423 5.83861C38.6629 5.10792 40.13 4.74258 42.0436 4.74258C43.9572 4.74258 45.4243 5.10792 46.4449 5.83861C47.4655 6.55149 47.9758 7.59406 47.9758 8.96634Z"/>
<path d="M65.5623 9.36733V17.9752C65.5623 18.3851 65.1978 18.5901 64.4688 18.5901C63.7398 18.5901 63.3753 18.3851 63.3753 17.9752V9.1C63.3753 8.45842 63.0746 7.9505 62.4732 7.57624C61.8718 7.20198 60.9332 7.01485 59.6574 7.01485C58.4364 7.01485 57.5069 7.19307 56.8691 7.5495C56.2312 7.90594 55.9123 8.42277 55.9123 9.1V16.4782C55.9123 17.5119 56.0672 18.2426 56.377 18.6703C56.705 19.098 57.2609 19.3119 58.0446 19.3119H60.2042C62.0267 19.3119 63.3753 19.6594 64.2501 20.3545C65.1249 21.0495 65.5623 22.1099 65.5623 23.5356V23.6426C65.5623 25.0683 65.1249 26.1287 64.2501 26.8238C63.3753 27.5188 62.0267 27.8663 60.2042 27.8663H53.9987C53.6342 27.8663 53.4519 27.5545 53.4519 26.9307C53.4519 26.3069 53.6342 25.995 53.9987 25.995H60.2042C61.3159 25.995 62.1178 25.8257 62.6099 25.4871C63.1201 25.1663 63.3753 24.6406 63.3753 23.9099V23.2683C63.3753 22.5376 63.1201 22.003 62.6099 21.6644C62.1178 21.3436 61.3159 21.1832 60.2042 21.1832H58.0446C56.4955 21.1832 55.3838 20.8178 54.7094 20.0871C54.0534 19.3564 53.7253 18.1535 53.7253 16.4782V9.36733C53.7253 7.99505 54.2356 6.95248 55.2562 6.2396C56.2768 5.50891 57.7439 5.14356 59.6574 5.14356H63.4846C64.2501 5.14356 64.8424 5.08119 65.2615 4.95644C65.6989 4.81386 66.0179 4.6802 66.2183 4.55545C66.437 4.41287 66.6011 4.34158 66.7104 4.34158C66.838 4.34158 66.9838 4.42178 67.1478 4.58218C67.3118 4.74257 67.4576 4.9297 67.5852 5.14356C67.7128 5.3396 67.7766 5.52673 67.7766 5.70495C67.7766 6.04356 67.5032 6.32871 66.9564 6.5604C66.4279 6.77426 65.7172 6.91683 64.8242 6.98812C65.3162 7.6297 65.5623 8.42277 65.5623 9.36733Z"/>
<path d="M76.9229 21.5842C74.9547 21.5842 73.4329 21.2188 72.3577 20.4881C71.2824 19.7396 70.7448 18.697 70.7448 17.3604V16.1842C70.7448 15.7743 71.1093 15.5693 71.8382 15.5693C72.5672 15.5693 72.9317 15.7743 72.9317 16.1842V17.6277C72.9317 18.2871 73.278 18.804 73.9705 19.1782C74.6813 19.5347 75.6654 19.7129 76.9229 19.7129C78.2169 19.7129 79.2284 19.5347 79.9574 19.1782C80.6863 18.804 81.0508 18.2871 81.0508 17.6277V14.6069C81.0508 14.0723 80.8321 13.6624 80.3948 13.3772C79.9574 13.0743 79.119 12.7891 77.8797 12.5218L75.4467 11.9871C74.3168 11.7376 73.4329 11.4436 72.795 11.105C72.1754 10.7485 71.738 10.2673 71.4829 9.66139C71.2459 9.05545 71.1275 8.26238 71.1275 7.28218V5.22376C71.1275 3.85149 71.6378 2.80891 72.6584 2.09604C73.6789 1.36535 75.146 1 77.0596 1C78.9732 1 80.4312 1.36535 81.4336 2.09604C82.4541 2.80891 82.9644 3.85149 82.9644 5.22376V6.4C82.9644 6.8099 82.5999 7.01485 81.871 7.01485C81.142 7.01485 80.7775 6.8099 80.7775 6.4V4.95644C80.7775 3.56634 79.5382 2.87129 77.0596 2.87129C75.8386 2.87129 74.9091 3.0495 74.2712 3.40594C73.6334 3.76238 73.3145 4.27921 73.3145 4.95644V7.22871C73.3145 8.17327 73.4603 8.83267 73.7518 9.20693C74.0434 9.58119 74.6084 9.86634 75.4467 10.0624L79.0006 10.8376C80.094 11.0693 80.9415 11.3545 81.5429 11.6931C82.1626 12.0139 82.5999 12.4238 82.8551 12.9228C83.1102 13.4218 83.2378 14.0545 83.2378 14.8208V17.3604C83.2378 18.697 82.682 19.7396 81.5702 20.4881C80.4768 21.2188 78.9277 21.5842 76.9229 21.5842Z"/>
<path d="M91.9908 19.3119H94.3691C96.8477 19.3119 98.087 18.6168 98.087 17.2267V8.69901C98.087 8.02178 97.768 7.50495 97.1302 7.14851C96.4923 6.79208 95.5628 6.61386 94.3418 6.61386C91.8632 6.61386 90.6239 7.30891 90.6239 8.69901V27.3851C90.6239 27.795 90.2594 28 89.5305 28C88.8015 28 88.437 27.795 88.437 27.3851V8.96634C88.437 7.59406 88.9382 6.55149 89.9405 5.83861C90.9611 5.10792 92.4282 4.74258 94.3418 4.74258C96.2554 4.74258 97.7225 5.10792 98.743 5.83861C99.7636 6.55149 100.274 7.59406 100.274 8.96634V16.9594C100.274 18.3139 99.7636 19.3564 98.743 20.0871C97.7407 20.8178 96.2827 21.1832 94.3691 21.1832H91.9908C91.6263 21.1832 91.4441 20.8713 91.4441 20.2475C91.4441 19.6238 91.6263 19.3119 91.9908 19.3119Z"/>
<path d="M117.567 8.96634V17.3604C117.567 18.7149 117.056 19.7574 116.036 20.4881C115.034 21.2188 113.576 21.5842 111.662 21.5842C109.748 21.5842 108.281 21.2188 107.261 20.4881C106.24 19.7574 105.73 18.7149 105.73 17.3604V8.96634C105.73 7.59406 106.231 6.55149 107.233 5.83861C108.254 5.10792 109.721 4.74258 111.635 4.74258C113.548 4.74258 115.015 5.10792 116.036 5.83861C117.056 6.55149 117.567 7.59406 117.567 8.96634ZM115.38 17.6277V8.69901C115.38 8.02178 115.061 7.50495 114.423 7.14851C113.785 6.79208 112.856 6.61386 111.635 6.61386C109.156 6.61386 107.917 7.30891 107.917 8.69901V17.6277C107.917 18.305 108.236 18.8218 108.874 19.1782C109.511 19.5347 110.441 19.7129 111.662 19.7129C114.141 19.7129 115.38 19.0178 115.38 17.6277Z"/>
<path d="M126.583 2.01584V5.14356H129.453C129.818 5.14356 130 5.45545 130 6.07921C130 6.70297 129.818 7.01485 129.453 7.01485H126.583V18.0554C126.583 18.5366 126.647 18.9287 126.774 19.2317C126.92 19.5347 127.057 19.7842 127.184 19.9802C127.33 20.1584 127.403 20.301 127.403 20.4079C127.403 20.5327 127.321 20.6842 127.157 20.8624C126.993 21.0228 126.802 21.1564 126.583 21.2634C126.382 21.3881 126.191 21.4505 126.009 21.4505C125.754 21.4505 125.498 21.299 125.243 20.996C124.988 20.6752 124.779 20.2743 124.615 19.7931C124.469 19.3119 124.396 18.8218 124.396 18.3228V7.01485H122.209C121.844 7.01485 121.662 6.70297 121.662 6.07921C121.662 5.45545 121.844 5.14356 122.209 5.14356H124.396V2.01584C124.396 1.60594 124.76 1.40099 125.489 1.40099C126.218 1.40099 126.583 1.60594 126.583 2.01584Z"/>
</mask>
<path d="M11.4701 17.6277V15.0079C11.4701 14.099 11.3061 13.4842 10.978 13.1634C10.65 12.8248 10.0303 12.6554 9.11911 12.6554H7.01416C6.64966 12.6554 6.46741 12.3436 6.46741 11.7198C6.46741 11.096 6.64966 10.7842 7.01416 10.7842H9.11911C10.7411 10.7842 11.8984 11.105 12.5909 11.7465C13.3017 12.3881 13.6571 13.4752 13.6571 15.0079V17.3604C13.6571 18.7149 13.1012 19.7574 11.9895 20.4881C10.896 21.2188 9.31047 21.5842 7.23285 21.5842C5.19168 21.5842 3.64258 21.2277 2.58555 20.5149C1.52852 19.802 1 18.7505 1 17.3604V5.22376C1 3.85149 1.52852 2.80891 2.58555 2.09604C3.66081 1.36535 5.2008 1 7.20552 1C9.19201 1 10.6955 1.35644 11.7161 2.06931C12.7367 2.78218 13.247 3.83366 13.247 5.22376V6.69406C13.247 7.10396 12.8825 7.30891 12.1535 7.30891C11.4245 7.30891 11.06 7.10396 11.06 6.69406V4.95644C11.06 3.56634 9.7752 2.87129 7.20552 2.87129C5.91156 2.87129 4.91831 3.0495 4.22577 3.40594C3.53324 3.76238 3.18697 4.27921 3.18697 4.95644V17.6277C3.18697 19.0178 4.53559 19.7129 7.23285 19.7129C8.61793 19.7129 9.66585 19.5347 10.3766 19.1782C11.1056 18.8218 11.4701 18.305 11.4701 17.6277Z" fill="currentColor"/>
<path d="M30.4032 8.96634V17.3604C30.4032 18.7149 29.8929 19.7574 28.8723 20.4881C27.8699 21.2188 26.4119 21.5842 24.4983 21.5842C22.5848 21.5842 21.1177 21.2188 20.0971 20.4881C19.0765 19.7574 18.5662 18.7149 18.5662 17.3604V8.96634C18.5662 7.59406 19.0674 6.55149 20.0697 5.83861C21.0903 5.10792 22.5574 4.74258 24.471 4.74258C26.3846 4.74258 27.8517 5.10792 28.8723 5.83861C29.8929 6.55149 30.4032 7.59406 30.4032 8.96634ZM28.2162 17.6277V8.69901C28.2162 8.02178 27.8973 7.50495 27.2594 7.14851C26.6215 6.79208 25.6921 6.61386 24.471 6.61386C21.9924 6.61386 20.7532 7.30891 20.7532 8.69901V17.6277C20.7532 18.305 21.0721 18.8218 21.71 19.1782C22.3478 19.5347 23.2773 19.7129 24.4983 19.7129C26.9769 19.7129 28.2162 19.0178 28.2162 17.6277Z" fill="currentColor"/>
<path d="M47.9758 8.96634V20.702C47.9758 21.1119 47.6113 21.3168 46.8823 21.3168C46.1533 21.3168 45.7888 21.1119 45.7888 20.702V8.69901C45.7888 8.02178 45.4699 7.50495 44.832 7.14851C44.1941 6.79208 43.2647 6.61386 42.0436 6.61386C39.5651 6.61386 38.3258 7.30891 38.3258 8.69901V20.702C38.3258 21.1119 37.9613 21.3168 37.2323 21.3168C36.5033 21.3168 36.1388 21.1119 36.1388 20.702V8.96634C36.1388 7.59406 36.64 6.55149 37.6423 5.83861C38.6629 5.10792 40.13 4.74258 42.0436 4.74258C43.9572 4.74258 45.4243 5.10792 46.4449 5.83861C47.4655 6.55149 47.9758 7.59406 47.9758 8.96634Z" fill="currentColor"/>
<path d="M65.5623 9.36733V17.9752C65.5623 18.3851 65.1978 18.5901 64.4688 18.5901C63.7398 18.5901 63.3753 18.3851 63.3753 17.9752V9.1C63.3753 8.45842 63.0746 7.9505 62.4732 7.57624C61.8718 7.20198 60.9332 7.01485 59.6574 7.01485C58.4364 7.01485 57.5069 7.19307 56.8691 7.5495C56.2312 7.90594 55.9123 8.42277 55.9123 9.1V16.4782C55.9123 17.5119 56.0672 18.2426 56.377 18.6703C56.705 19.098 57.2609 19.3119 58.0446 19.3119H60.2042C62.0267 19.3119 63.3753 19.6594 64.2501 20.3545C65.1249 21.0495 65.5623 22.1099 65.5623 23.5356V23.6426C65.5623 25.0683 65.1249 26.1287 64.2501 26.8238C63.3753 27.5188 62.0267 27.8663 60.2042 27.8663H53.9987C53.6342 27.8663 53.4519 27.5545 53.4519 26.9307C53.4519 26.3069 53.6342 25.995 53.9987 25.995H60.2042C61.3159 25.995 62.1178 25.8257 62.6099 25.4871C63.1201 25.1663 63.3753 24.6406 63.3753 23.9099V23.2683C63.3753 22.5376 63.1201 22.003 62.6099 21.6644C62.1178 21.3436 61.3159 21.1832 60.2042 21.1832H58.0446C56.4955 21.1832 55.3838 20.8178 54.7094 20.0871C54.0534 19.3564 53.7253 18.1535 53.7253 16.4782V9.36733C53.7253 7.99505 54.2356 6.95248 55.2562 6.2396C56.2768 5.50891 57.7439 5.14356 59.6574 5.14356H63.4846C64.2501 5.14356 64.8424 5.08119 65.2615 4.95644C65.6989 4.81386 66.0179 4.6802 66.2183 4.55545C66.437 4.41287 66.6011 4.34158 66.7104 4.34158C66.838 4.34158 66.9838 4.42178 67.1478 4.58218C67.3118 4.74257 67.4576 4.9297 67.5852 5.14356C67.7128 5.3396 67.7766 5.52673 67.7766 5.70495C67.7766 6.04356 67.5032 6.32871 66.9564 6.5604C66.4279 6.77426 65.7172 6.91683 64.8242 6.98812C65.3162 7.6297 65.5623 8.42277 65.5623 9.36733Z" fill="currentColor"/>
<path d="M76.9229 21.5842C74.9547 21.5842 73.4329 21.2188 72.3577 20.4881C71.2824 19.7396 70.7448 18.697 70.7448 17.3604V16.1842C70.7448 15.7743 71.1093 15.5693 71.8382 15.5693C72.5672 15.5693 72.9317 15.7743 72.9317 16.1842V17.6277C72.9317 18.2871 73.278 18.804 73.9705 19.1782C74.6813 19.5347 75.6654 19.7129 76.9229 19.7129C78.2169 19.7129 79.2284 19.5347 79.9574 19.1782C80.6863 18.804 81.0508 18.2871 81.0508 17.6277V14.6069C81.0508 14.0723 80.8321 13.6624 80.3948 13.3772C79.9574 13.0743 79.119 12.7891 77.8797 12.5218L75.4467 11.9871C74.3168 11.7376 73.4329 11.4436 72.795 11.105C72.1754 10.7485 71.738 10.2673 71.4829 9.66139C71.2459 9.05545 71.1275 8.26238 71.1275 7.28218V5.22376C71.1275 3.85149 71.6378 2.80891 72.6584 2.09604C73.6789 1.36535 75.146 1 77.0596 1C78.9732 1 80.4312 1.36535 81.4336 2.09604C82.4541 2.80891 82.9644 3.85149 82.9644 5.22376V6.4C82.9644 6.8099 82.5999 7.01485 81.871 7.01485C81.142 7.01485 80.7775 6.8099 80.7775 6.4V4.95644C80.7775 3.56634 79.5382 2.87129 77.0596 2.87129C75.8386 2.87129 74.9091 3.0495 74.2712 3.40594C73.6334 3.76238 73.3145 4.27921 73.3145 4.95644V7.22871C73.3145 8.17327 73.4603 8.83267 73.7518 9.20693C74.0434 9.58119 74.6084 9.86634 75.4467 10.0624L79.0006 10.8376C80.094 11.0693 80.9415 11.3545 81.5429 11.6931C82.1626 12.0139 82.5999 12.4238 82.8551 12.9228C83.1102 13.4218 83.2378 14.0545 83.2378 14.8208V17.3604C83.2378 18.697 82.682 19.7396 81.5702 20.4881C80.4768 21.2188 78.9277 21.5842 76.9229 21.5842Z" fill="currentColor"/>
<path d="M91.9908 19.3119H94.3691C96.8477 19.3119 98.087 18.6168 98.087 17.2267V8.69901C98.087 8.02178 97.768 7.50495 97.1302 7.14851C96.4923 6.79208 95.5628 6.61386 94.3418 6.61386C91.8632 6.61386 90.6239 7.30891 90.6239 8.69901V27.3851C90.6239 27.795 90.2594 28 89.5305 28C88.8015 28 88.437 27.795 88.437 27.3851V8.96634C88.437 7.59406 88.9382 6.55149 89.9405 5.83861C90.9611 5.10792 92.4282 4.74258 94.3418 4.74258C96.2554 4.74258 97.7225 5.10792 98.743 5.83861C99.7636 6.55149 100.274 7.59406 100.274 8.96634V16.9594C100.274 18.3139 99.7636 19.3564 98.743 20.0871C97.7407 20.8178 96.2827 21.1832 94.3691 21.1832H91.9908C91.6263 21.1832 91.4441 20.8713 91.4441 20.2475C91.4441 19.6238 91.6263 19.3119 91.9908 19.3119Z" fill="currentColor"/>
<path d="M117.567 8.96634V17.3604C117.567 18.7149 117.056 19.7574 116.036 20.4881C115.034 21.2188 113.576 21.5842 111.662 21.5842C109.748 21.5842 108.281 21.2188 107.261 20.4881C106.24 19.7574 105.73 18.7149 105.73 17.3604V8.96634C105.73 7.59406 106.231 6.55149 107.233 5.83861C108.254 5.10792 109.721 4.74258 111.635 4.74258C113.548 4.74258 115.015 5.10792 116.036 5.83861C117.056 6.55149 117.567 7.59406 117.567 8.96634ZM115.38 17.6277V8.69901C115.38 8.02178 115.061 7.50495 114.423 7.14851C113.785 6.79208 112.856 6.61386 111.635 6.61386C109.156 6.61386 107.917 7.30891 107.917 8.69901V17.6277C107.917 18.305 108.236 18.8218 108.874 19.1782C109.511 19.5347 110.441 19.7129 111.662 19.7129C114.141 19.7129 115.38 19.0178 115.38 17.6277Z" fill="currentColor"/>
<path d="M126.583 2.01584V5.14356H129.453C129.818 5.14356 130 5.45545 130 6.07921C130 6.70297 129.818 7.01485 129.453 7.01485H126.583V18.0554C126.583 18.5366 126.647 18.9287 126.774 19.2317C126.92 19.5347 127.057 19.7842 127.184 19.9802C127.33 20.1584 127.403 20.301 127.403 20.4079C127.403 20.5327 127.321 20.6842 127.157 20.8624C126.993 21.0228 126.802 21.1564 126.583 21.2634C126.382 21.3881 126.191 21.4505 126.009 21.4505C125.754 21.4505 125.498 21.299 125.243 20.996C124.988 20.6752 124.779 20.2743 124.615 19.7931C124.469 19.3119 124.396 18.8218 124.396 18.3228V7.01485H122.209C121.844 7.01485 121.662 6.70297 121.662 6.07921C121.662 5.45545 121.844 5.14356 122.209 5.14356H124.396V2.01584C124.396 1.60594 124.76 1.40099 125.489 1.40099C126.218 1.40099 126.583 1.60594 126.583 2.01584Z" fill="currentColor"/>
<path d="M11.4701 17.6277V15.0079C11.4701 14.099 11.3061 13.4842 10.978 13.1634C10.65 12.8248 10.0303 12.6554 9.11911 12.6554H7.01416C6.64966 12.6554 6.46741 12.3436 6.46741 11.7198C6.46741 11.096 6.64966 10.7842 7.01416 10.7842H9.11911C10.7411 10.7842 11.8984 11.105 12.5909 11.7465C13.3017 12.3881 13.6571 13.4752 13.6571 15.0079V17.3604C13.6571 18.7149 13.1012 19.7574 11.9895 20.4881C10.896 21.2188 9.31047 21.5842 7.23285 21.5842C5.19168 21.5842 3.64258 21.2277 2.58555 20.5149C1.52852 19.802 1 18.7505 1 17.3604V5.22376C1 3.85149 1.52852 2.80891 2.58555 2.09604C3.66081 1.36535 5.2008 1 7.20552 1C9.19201 1 10.6955 1.35644 11.7161 2.06931C12.7367 2.78218 13.247 3.83366 13.247 5.22376V6.69406C13.247 7.10396 12.8825 7.30891 12.1535 7.30891C11.4245 7.30891 11.06 7.10396 11.06 6.69406V4.95644C11.06 3.56634 9.7752 2.87129 7.20552 2.87129C5.91156 2.87129 4.91831 3.0495 4.22577 3.40594C3.53324 3.76238 3.18697 4.27921 3.18697 4.95644V17.6277C3.18697 19.0178 4.53559 19.7129 7.23285 19.7129C8.61793 19.7129 9.66585 19.5347 10.3766 19.1782C11.1056 18.8218 11.4701 18.305 11.4701 17.6277Z" stroke="currentColor" mask="url(#path-1-outside-1_760_1642)"/>
<path d="M30.4032 8.96634V17.3604C30.4032 18.7149 29.8929 19.7574 28.8723 20.4881C27.8699 21.2188 26.4119 21.5842 24.4983 21.5842C22.5848 21.5842 21.1177 21.2188 20.0971 20.4881C19.0765 19.7574 18.5662 18.7149 18.5662 17.3604V8.96634C18.5662 7.59406 19.0674 6.55149 20.0697 5.83861C21.0903 5.10792 22.5574 4.74258 24.471 4.74258C26.3846 4.74258 27.8517 5.10792 28.8723 5.83861C29.8929 6.55149 30.4032 7.59406 30.4032 8.96634ZM28.2162 17.6277V8.69901C28.2162 8.02178 27.8973 7.50495 27.2594 7.14851C26.6215 6.79208 25.6921 6.61386 24.471 6.61386C21.9924 6.61386 20.7532 7.30891 20.7532 8.69901V17.6277C20.7532 18.305 21.0721 18.8218 21.71 19.1782C22.3478 19.5347 23.2773 19.7129 24.4983 19.7129C26.9769 19.7129 28.2162 19.0178 28.2162 17.6277Z" stroke="currentColor" mask="url(#path-1-outside-1_760_1642)"/>
<path d="M47.9758 8.96634V20.702C47.9758 21.1119 47.6113 21.3168 46.8823 21.3168C46.1533 21.3168 45.7888 21.1119 45.7888 20.702V8.69901C45.7888 8.02178 45.4699 7.50495 44.832 7.14851C44.1941 6.79208 43.2647 6.61386 42.0436 6.61386C39.5651 6.61386 38.3258 7.30891 38.3258 8.69901V20.702C38.3258 21.1119 37.9613 21.3168 37.2323 21.3168C36.5033 21.3168 36.1388 21.1119 36.1388 20.702V8.96634C36.1388 7.59406 36.64 6.55149 37.6423 5.83861C38.6629 5.10792 40.13 4.74258 42.0436 4.74258C43.9572 4.74258 45.4243 5.10792 46.4449 5.83861C47.4655 6.55149 47.9758 7.59406 47.9758 8.96634Z" stroke="currentColor" mask="url(#path-1-outside-1_760_1642)"/>
<path d="M65.5623 9.36733V17.9752C65.5623 18.3851 65.1978 18.5901 64.4688 18.5901C63.7398 18.5901 63.3753 18.3851 63.3753 17.9752V9.1C63.3753 8.45842 63.0746 7.9505 62.4732 7.57624C61.8718 7.20198 60.9332 7.01485 59.6574 7.01485C58.4364 7.01485 57.5069 7.19307 56.8691 7.5495C56.2312 7.90594 55.9123 8.42277 55.9123 9.1V16.4782C55.9123 17.5119 56.0672 18.2426 56.377 18.6703C56.705 19.098 57.2609 19.3119 58.0446 19.3119H60.2042C62.0267 19.3119 63.3753 19.6594 64.2501 20.3545C65.1249 21.0495 65.5623 22.1099 65.5623 23.5356V23.6426C65.5623 25.0683 65.1249 26.1287 64.2501 26.8238C63.3753 27.5188 62.0267 27.8663 60.2042 27.8663H53.9987C53.6342 27.8663 53.4519 27.5545 53.4519 26.9307C53.4519 26.3069 53.6342 25.995 53.9987 25.995H60.2042C61.3159 25.995 62.1178 25.8257 62.6099 25.4871C63.1201 25.1663 63.3753 24.6406 63.3753 23.9099V23.2683C63.3753 22.5376 63.1201 22.003 62.6099 21.6644C62.1178 21.3436 61.3159 21.1832 60.2042 21.1832H58.0446C56.4955 21.1832 55.3838 20.8178 54.7094 20.0871C54.0534 19.3564 53.7253 18.1535 53.7253 16.4782V9.36733C53.7253 7.99505 54.2356 6.95248 55.2562 6.2396C56.2768 5.50891 57.7439 5.14356 59.6574 5.14356H63.4846C64.2501 5.14356 64.8424 5.08119 65.2615 4.95644C65.6989 4.81386 66.0179 4.6802 66.2183 4.55545C66.437 4.41287 66.6011 4.34158 66.7104 4.34158C66.838 4.34158 66.9838 4.42178 67.1478 4.58218C67.3118 4.74257 67.4576 4.9297 67.5852 5.14356C67.7128 5.3396 67.7766 5.52673 67.7766 5.70495C67.7766 6.04356 67.5032 6.32871 66.9564 6.5604C66.4279 6.77426 65.7172 6.91683 64.8242 6.98812C65.3162 7.6297 65.5623 8.42277 65.5623 9.36733Z" stroke="currentColor" mask="url(#path-1-outside-1_760_1642)"/>
<path d="M76.9229 21.5842C74.9547 21.5842 73.4329 21.2188 72.3577 20.4881C71.2824 19.7396 70.7448 18.697 70.7448 17.3604V16.1842C70.7448 15.7743 71.1093 15.5693 71.8382 15.5693C72.5672 15.5693 72.9317 15.7743 72.9317 16.1842V17.6277C72.9317 18.2871 73.278 18.804 73.9705 19.1782C74.6813 19.5347 75.6654 19.7129 76.9229 19.7129C78.2169 19.7129 79.2284 19.5347 79.9574 19.1782C80.6863 18.804 81.0508 18.2871 81.0508 17.6277V14.6069C81.0508 14.0723 80.8321 13.6624 80.3948 13.3772C79.9574 13.0743 79.119 12.7891 77.8797 12.5218L75.4467 11.9871C74.3168 11.7376 73.4329 11.4436 72.795 11.105C72.1754 10.7485 71.738 10.2673 71.4829 9.66139C71.2459 9.05545 71.1275 8.26238 71.1275 7.28218V5.22376C71.1275 3.85149 71.6378 2.80891 72.6584 2.09604C73.6789 1.36535 75.146 1 77.0596 1C78.9732 1 80.4312 1.36535 81.4336 2.09604C82.4541 2.80891 82.9644 3.85149 82.9644 5.22376V6.4C82.9644 6.8099 82.5999 7.01485 81.871 7.01485C81.142 7.01485 80.7775 6.8099 80.7775 6.4V4.95644C80.7775 3.56634 79.5382 2.87129 77.0596 2.87129C75.8386 2.87129 74.9091 3.0495 74.2712 3.40594C73.6334 3.76238 73.3145 4.27921 73.3145 4.95644V7.22871C73.3145 8.17327 73.4603 8.83267 73.7518 9.20693C74.0434 9.58119 74.6084 9.86634 75.4467 10.0624L79.0006 10.8376C80.094 11.0693 80.9415 11.3545 81.5429 11.6931C82.1626 12.0139 82.5999 12.4238 82.8551 12.9228C83.1102 13.4218 83.2378 14.0545 83.2378 14.8208V17.3604C83.2378 18.697 82.682 19.7396 81.5702 20.4881C80.4768 21.2188 78.9277 21.5842 76.9229 21.5842Z" stroke="currentColor" mask="url(#path-1-outside-1_760_1642)"/>
<path d="M91.9908 19.3119H94.3691C96.8477 19.3119 98.087 18.6168 98.087 17.2267V8.69901C98.087 8.02178 97.768 7.50495 97.1302 7.14851C96.4923 6.79208 95.5628 6.61386 94.3418 6.61386C91.8632 6.61386 90.6239 7.30891 90.6239 8.69901V27.3851C90.6239 27.795 90.2594 28 89.5305 28C88.8015 28 88.437 27.795 88.437 27.3851V8.96634C88.437 7.59406 88.9382 6.55149 89.9405 5.83861C90.9611 5.10792 92.4282 4.74258 94.3418 4.74258C96.2554 4.74258 97.7225 5.10792 98.743 5.83861C99.7636 6.55149 100.274 7.59406 100.274 8.96634V16.9594C100.274 18.3139 99.7636 19.3564 98.743 20.0871C97.7407 20.8178 96.2827 21.1832 94.3691 21.1832H91.9908C91.6263 21.1832 91.4441 20.8713 91.4441 20.2475C91.4441 19.6238 91.6263 19.3119 91.9908 19.3119Z" stroke="currentColor" mask="url(#path-1-outside-1_760_1642)"/>
<path d="M117.567 8.96634V17.3604C117.567 18.7149 117.056 19.7574 116.036 20.4881C115.034 21.2188 113.576 21.5842 111.662 21.5842C109.748 21.5842 108.281 21.2188 107.261 20.4881C106.24 19.7574 105.73 18.7149 105.73 17.3604V8.96634C105.73 7.59406 106.231 6.55149 107.233 5.83861C108.254 5.10792 109.721 4.74258 111.635 4.74258C113.548 4.74258 115.015 5.10792 116.036 5.83861C117.056 6.55149 117.567 7.59406 117.567 8.96634ZM115.38 17.6277V8.69901C115.38 8.02178 115.061 7.50495 114.423 7.14851C113.785 6.79208 112.856 6.61386 111.635 6.61386C109.156 6.61386 107.917 7.30891 107.917 8.69901V17.6277C107.917 18.305 108.236 18.8218 108.874 19.1782C109.511 19.5347 110.441 19.7129 111.662 19.7129C114.141 19.7129 115.38 19.0178 115.38 17.6277Z" stroke="currentColor" mask="url(#path-1-outside-1_760_1642)"/>
<path d="M126.583 2.01584V5.14356H129.453C129.818 5.14356 130 5.45545 130 6.07921C130 6.70297 129.818 7.01485 129.453 7.01485H126.583V18.0554C126.583 18.5366 126.647 18.9287 126.774 19.2317C126.92 19.5347 127.057 19.7842 127.184 19.9802C127.33 20.1584 127.403 20.301 127.403 20.4079C127.403 20.5327 127.321 20.6842 127.157 20.8624C126.993 21.0228 126.802 21.1564 126.583 21.2634C126.382 21.3881 126.191 21.4505 126.009 21.4505C125.754 21.4505 125.498 21.299 125.243 20.996C124.988 20.6752 124.779 20.2743 124.615 19.7931C124.469 19.3119 124.396 18.8218 124.396 18.3228V7.01485H122.209C121.844 7.01485 121.662 6.70297 121.662 6.07921C121.662 5.45545 121.844 5.14356 122.209 5.14356H124.396V2.01584C124.396 1.60594 124.76 1.40099 125.489 1.40099C126.218 1.40099 126.583 1.60594 126.583 2.01584Z" stroke="currentColor" mask="url(#path-1-outside-1_760_1642)"/>
</svg>
